<svg width="24" height="24" viewBox="0 0 24 24" fill="none" xmlns="http://www.w3.org/2000/svg">
<path fill-rule="evenodd" clip-rule="evenodd" d="M11.0944 2.55851C8.86083 4.70992 8.52643 6.63476 9.82425 9.86816C10.2286 10.8755 10.5072 11.7498 10.4435 11.8113C10.3797 11.8727 10.256 11.7065 10.1689 11.4418C9.95385 10.7892 8.52277 9.29172 7.74288 8.90309C6.91408 8.49025 5.18174 8.4995 4.33534 8.92115C2.23751 9.96614 2.72163 12.8512 5.21374 14.1578C6.79911 14.989 7.06997 14.9509 6.92597 13.9176C6.62037 11.7221 9.27683 12.6997 9.74494 14.9551C9.85923 15.5053 9.80208 15.6066 9.34128 15.6696C8.73374 15.7528 8.47523 16.4701 8.94905 16.7592C9.11843 16.8627 9.56574 16.951 9.94288 16.9554L10.6286 16.9636L9.4174 18.0856C8.75134 18.7028 8.27157 19.2704 8.3518 19.3471C8.4318 19.4235 9.09534 19.4756 9.82654 19.4624C11.1273 19.4393 11.1589 19.453 11.2928 20.0979C11.368 20.4603 11.6446 21.092 11.9072 21.5016L12.3852 22.2462L12.7991 21.7391C13.0268 21.4604 13.3239 20.8359 13.4592 20.3513L13.7056 19.4706L15.0617 19.4785C16.5209 19.4869 17.046 19.2574 16.3845 18.901C15.7433 18.5553 14.4 17.3711 14.4 17.1514C14.4 17.0428 14.696 16.9541 15.0579 16.9541C15.8032 16.9541 16.3449 16.4627 16.147 15.9661C16.0741 15.7829 15.7541 15.633 15.4357 15.633C14.7248 15.633 14.696 15.2591 15.3166 14.0875C15.8019 13.1709 16.8782 12.4663 17.4627 12.6823C17.9525 12.8635 18.1292 13.5505 17.8265 14.0957C17.3472 14.9579 17.723 15.0053 19.2007 14.2683C21.3838 13.1797 22.2275 11.5028 21.3831 9.93003C20.8873 9.00658 20.0617 8.58713 18.7397 8.58713C17.3056 8.58713 16.5143 8.96607 15.4515 10.1623C14.9989 10.6716 14.6286 11.0329 14.6286 10.9649C14.6286 10.8971 14.8857 10.1832 15.2 9.37891C15.9029 7.58001 15.9356 5.98654 15.2974 4.62383C14.8133 3.59007 12.9052 1.54126 12.4268 1.54126C12.2748 1.54126 11.6752 1.99902 11.0944 2.55851Z" fill="white"/>
</svg>
