<svg width="153" height="82" viewBox="0 0 153 82" fill="none" xmlns="http://www.w3.org/2000/svg">
<path d="M1.67797 77V60.9472H4.47913L10.4909 69.1136H9.15493L15.0374 60.9472H17.8386V77H14.8866V64.287L16.0286 64.5671L9.93064 72.6905H9.58588L3.63878 64.5671L4.60842 64.287V77H1.67797ZM26.0606 77L31.5983 60.9472H35.3906L40.9283 77H37.7393L36.5973 73.5524H30.3916L29.2281 77H26.0606ZM31.232 70.9667H35.7569L33.0851 62.9726H33.9039L31.232 70.9667ZM49.1791 77V60.9472H55.1478C56.2395 60.9472 57.202 61.1483 58.0351 61.5505C58.8827 61.9383 59.5435 62.5129 60.0175 63.2743C60.4915 64.0213 60.7286 64.9334 60.7286 66.0108C60.7286 67.1169 60.4628 68.0578 59.9313 68.8335C59.4142 69.6092 58.7103 70.1838 57.8197 70.5573L61.5043 77H58.186L54.2428 69.954L56.139 71.0745H52.1096V77H49.1791ZM52.1096 68.4888H55.1909C55.7224 68.4888 56.1821 68.3882 56.5699 68.1871C56.9578 67.9716 57.2594 67.6771 57.4749 67.3036C57.6904 66.9302 57.7981 66.4992 57.7981 66.0108C57.7981 65.508 57.6904 65.0771 57.4749 64.718C57.2594 64.3445 56.9578 64.0572 56.5699 63.8561C56.1821 63.6406 55.7224 63.5328 55.1909 63.5328H52.1096V68.4888Z" fill="white"/>
<path d="M73.4416 77L71.0714 60.9472H72.7737L74.756 75.3193H74.3466L80.5307 60.9472H82.3192L84.3877 75.3193H83.9352L90.0116 60.9472H91.8L84.948 77H83.1164L81.0263 62.5632H81.4573L75.2732 77H73.4416ZM100.319 77L102.56 60.9472H112.903L112.688 62.5632H104.069L103.271 68.144H111.459L111.244 69.7601H103.056L102.259 75.3839H110.878L110.662 77H100.319ZM122.153 77L124.394 60.9472H126.118L124.092 75.3839H131.203L130.987 77H122.153ZM142.24 77L144.481 60.9472H146.205L144.179 75.3839H151.29L151.075 77H142.24Z" fill="white"/>
<path fill-rule="evenodd" clip-rule="evenodd" d="M76.2974 7.26692C76.2974 7.31336 76.2594 7.35136 76.213 7.35136C76.1661 7.35136 76.1285 7.4014 76.1285 7.46394C76.1285 7.53897 76.091 7.57651 76.016 7.57651C75.917 7.57651 75.9034 7.61406 75.9034 7.8861C75.9034 8.12376 75.8838 8.19569 75.819 8.19569C75.7725 8.19569 75.7345 8.23369 75.7345 8.28013C75.7345 8.32657 75.7725 8.36456 75.819 8.36456C75.8774 8.36456 75.9034 8.42327 75.9034 8.55532C75.9034 8.72875 75.8855 8.74941 75.7064 8.78301C75.5885 8.80514 75.5094 8.85287 75.5094 8.90184C75.5094 8.94687 75.4587 8.98374 75.3968 8.98374C75.3349 8.98374 75.2842 9.02061 75.2842 9.06564C75.2842 9.11461 75.2051 9.16235 75.0872 9.18447C74.9743 9.20563 74.8902 9.25483 74.8902 9.29958C74.8902 9.34258 74.8551 9.37776 74.8123 9.37776C74.7695 9.37776 74.7212 9.42842 74.705 9.49034C74.6888 9.55226 74.6352 9.60292 74.5859 9.60292C74.5365 9.60292 74.4962 9.64092 74.4962 9.68735C74.4962 9.73379 74.4582 9.77179 74.4117 9.77179C74.3653 9.77179 74.3273 9.80686 74.3273 9.84964C74.3273 9.89247 74.2766 9.94077 74.2147 9.95698C74.1528 9.97313 74.1021 10.0268 74.1021 10.0761C74.1021 10.1363 74.0511 10.166 73.9473 10.1666C73.7063 10.1678 73.5393 10.2278 73.5393 10.3131C73.5393 10.3559 73.5013 10.391 73.4548 10.391C73.4084 10.391 73.3704 10.429 73.3704 10.4754C73.3704 10.5218 73.3928 10.5598 73.4201 10.5598C73.4474 10.5598 73.4831 10.6105 73.4993 10.6724C73.5154 10.7343 73.5659 10.785 73.6114 10.785C73.6589 10.785 73.709 10.8597 73.7292 10.9609C73.7877 11.2531 73.7718 11.3479 73.6643 11.3479C73.6093 11.3479 73.5209 11.3985 73.4679 11.4605C73.4149 11.5224 73.3206 11.573 73.2584 11.573C73.1961 11.573 73.1452 11.6054 73.1452 11.645C73.1452 11.6845 73.0946 11.7603 73.0327 11.8133C72.9707 11.8663 72.9201 11.9606 72.9201 12.0228C72.9201 12.0888 72.8827 12.1359 72.8303 12.1359C72.781 12.1359 72.7274 12.1866 72.7112 12.2485C72.695 12.3104 72.6467 12.3611 72.6039 12.3611C72.5525 12.3611 72.5261 12.4279 72.5261 12.5581C72.5261 12.6957 72.5006 12.7551 72.4416 12.7551C72.3826 12.7551 72.3572 12.8145 72.3572 12.9521V13.1491H72.8356C73.2766 13.1491 73.3141 13.158 73.3141 13.2617C73.3141 13.3242 73.2766 13.3743 73.2297 13.3743C73.1832 13.3743 73.1452 13.4123 73.1452 13.4587C73.1452 13.5056 73.0952 13.5432 73.0327 13.5432C72.9576 13.5432 72.9201 13.5807 72.9201 13.6557C72.9201 13.7183 72.8825 13.7683 72.8356 13.7683C72.7892 13.7683 72.7512 13.8063 72.7512 13.8527C72.7512 13.8996 72.7012 13.9372 72.6386 13.9372C72.5767 13.9372 72.5261 13.974 72.5261 14.0191C72.5261 14.068 72.447 14.1158 72.329 14.1379C72.2162 14.1591 72.132 14.2083 72.132 14.253C72.132 14.296 72.0814 14.3312 72.0194 14.3312C71.9575 14.3312 71.9069 14.3663 71.9069 14.409C71.9069 14.5833 71.3334 14.6111 71.1902 14.4438C71.1372 14.3819 71.0615 14.3312 71.0219 14.3312C70.9823 14.3312 70.95 14.296 70.95 14.253C70.95 14.2083 70.8658 14.1591 70.7529 14.1379C70.635 14.1158 70.5559 14.068 70.5559 14.0191C70.5559 13.974 70.5053 13.9372 70.4434 13.9372C70.3814 13.9372 70.3308 13.9021 70.3308 13.8593C70.3308 13.8165 70.2801 13.7682 70.2182 13.752C70.1563 13.7358 70.1056 13.6822 70.1056 13.6329C70.1056 13.5835 70.0676 13.5432 70.0212 13.5432C69.9748 13.5432 69.9368 13.5063 69.9368 13.4613C69.9368 13.4123 69.8577 13.3645 69.7397 13.3424C69.6269 13.3213 69.5427 13.2721 69.5427 13.2273C69.5427 13.1843 69.5047 13.1491 69.4583 13.1491C69.4119 13.1491 69.3739 13.1111 69.3739 13.0647C69.3739 13.0178 69.3238 12.9803 69.2613 12.9803C69.1863 12.9803 69.1487 12.9427 69.1487 12.8677C69.1487 12.7927 69.1112 12.7551 69.0361 12.7551C68.9742 12.7551 68.9236 12.7191 68.9236 12.6751C68.9236 12.6312 68.8476 12.5785 68.7547 12.5581C68.6618 12.5377 68.5858 12.485 68.5858 12.4411C68.5858 12.3971 68.5352 12.3611 68.4732 12.3611C68.3982 12.3611 68.3607 12.3235 68.3607 12.2485C68.3607 12.1735 68.3231 12.1359 68.2481 12.1359C68.1855 12.1359 68.1355 12.0984 68.1355 12.0515C68.1355 12.0051 68.0975 11.9671 68.0511 11.9671C68.0046 11.9671 67.9666 11.9302 67.9666 11.8852C67.9666 11.8362 67.8876 11.7885 67.7696 11.7663C67.6568 11.7452 67.5726 11.696 67.5726 11.6512C67.5726 11.6082 67.5346 11.573 67.4882 11.573C67.4417 11.573 67.4037 11.5327 67.4037 11.4833C67.4037 11.434 67.3531 11.3804 67.2912 11.3642C67.2293 11.348 67.1786 11.3025 67.1786 11.2632C67.1786 11.2238 67.0899 11.1749 66.9816 11.1546C66.8637 11.1325 66.7846 11.0847 66.7846 11.0358C66.7846 10.9907 66.7339 10.9539 66.672 10.9539C66.6095 10.9539 66.5594 10.9163 66.5594 10.8694C66.5594 10.823 66.527 10.785 66.4875 10.785C66.4479 10.785 66.3722 10.7343 66.3192 10.6724C66.2661 10.6105 66.1592 10.5598 66.0815 10.5598C65.9993 10.5598 65.9402 10.5275 65.9402 10.4827C65.9402 10.4326 65.8415 10.3924 65.6588 10.3681C65.4661 10.3426 65.3773 10.3048 65.3773 10.2483C65.3773 10.1823 65.2817 10.1658 64.8989 10.1658C64.5111 10.1658 64.4204 10.1498 64.4204 10.0814C64.4204 10.0108 64.3047 9.99694 63.7168 9.99694C63.1289 9.99694 63.0132 10.0108 63.0132 10.0814C63.0132 10.1462 62.9413 10.1658 62.7036 10.1658C62.4702 10.1658 62.394 10.186 62.394 10.2477C62.394 10.2967 62.3149 10.3444 62.197 10.3665C62.0038 10.4028 62 10.4088 62 10.6787C62 10.8754 62.0222 10.9539 62.0778 10.9539C62.1207 10.9539 62.169 11.0045 62.1852 11.0664C62.2013 11.1284 62.255 11.179 62.3043 11.179C62.3565 11.179 62.394 11.2261 62.394 11.2916C62.394 11.3535 62.43 11.4042 62.474 11.4042C62.518 11.4042 62.5707 11.4802 62.591 11.573C62.6114 11.6659 62.6641 11.7419 62.7081 11.7419C62.7521 11.7419 62.788 11.7926 62.788 11.8545C62.788 11.9164 62.8249 11.9671 62.8699 11.9671C62.9189 11.9671 62.9667 12.0461 62.9888 12.1641C63.0099 12.2769 63.0591 12.3611 63.1039 12.3611C63.1469 12.3611 63.1821 12.3991 63.1821 12.4455C63.1821 12.4924 63.2321 12.53 63.2946 12.53C63.3566 12.53 63.4072 12.5668 63.4072 12.6119C63.4072 12.6608 63.4863 12.7086 63.6042 12.7307C63.7126 12.751 63.8012 12.7993 63.8012 12.838C63.8012 12.9095 64.1936 12.9788 64.6034 12.9798C64.7533 12.9801 64.8145 13.0047 64.8145 13.0647C64.8145 13.1311 64.8926 13.1491 65.1803 13.1491C65.468 13.1491 65.5462 13.1672 65.5462 13.2336C65.5462 13.2817 65.5968 13.318 65.6641 13.318C65.7346 13.318 65.7937 13.3632 65.8113 13.4306C65.8275 13.4925 65.8758 13.5432 65.9187 13.5432C65.9615 13.5432 65.9965 13.5811 65.9965 13.6276C65.9965 13.674 66.0345 13.712 66.081 13.712C66.1278 13.712 66.1654 13.7621 66.1654 13.8246C66.1654 13.8996 66.2029 13.9372 66.278 13.9372C66.353 13.9372 66.3905 13.9747 66.3905 14.0498C66.3905 14.1117 66.4265 14.1623 66.4705 14.1623C66.5145 14.1623 66.5667 14.2362 66.5865 14.3265C66.6064 14.4168 66.659 14.5046 66.7036 14.5217C66.7481 14.5388 66.7846 14.6043 66.7846 14.6672C66.7846 14.7313 66.8217 14.7815 66.869 14.7815C66.9188 14.7815 66.9538 14.8335 66.9542 14.9082C66.9555 15.1231 67.0192 15.2881 67.1007 15.2881C67.1463 15.2881 67.1786 15.3465 67.1786 15.4288C67.1786 15.5145 67.2107 15.5696 67.2605 15.5696C67.3095 15.5696 67.3572 15.6486 67.3793 15.7666C67.4005 15.8794 67.4497 15.9636 67.4944 15.9636C67.5438 15.9636 67.5726 16.0259 67.5726 16.1324C67.5726 16.245 67.6008 16.3013 67.657 16.3013C67.7039 16.3013 67.7415 16.3514 67.7415 16.4139C67.7415 16.4889 67.779 16.5265 67.8541 16.5265C67.9452 16.5265 67.9666 16.564 67.9666 16.7235C67.9666 16.9111 67.976 16.9205 68.1637 16.9205C68.3231 16.9205 68.3607 16.9419 68.3607 17.0331C68.3607 17.0956 68.3982 17.1457 68.4451 17.1457C68.4915 17.1457 68.5295 17.1836 68.5295 17.2301C68.5295 17.3688 68.903 17.3432 68.9399 17.2019C68.956 17.14 69.0097 17.0894 69.059 17.0894C69.1083 17.0894 69.1487 17.0514 69.1487 17.0049C69.1487 16.9585 69.1867 16.9205 69.2331 16.9205C69.2796 16.9205 69.3176 16.8825 69.3176 16.8361C69.3176 16.7879 69.3682 16.7516 69.4354 16.7516C69.5059 16.7516 69.5651 16.7064 69.5827 16.6391C69.6336 16.4445 69.7679 16.5058 69.7679 16.7235C69.7679 16.883 69.7464 16.9205 69.6553 16.9205C69.5642 16.9205 69.5427 16.958 69.5427 17.1175C69.5427 17.2551 69.5173 17.3145 69.4583 17.3145C69.4119 17.3145 69.3739 17.3513 69.3739 17.3961C69.3739 17.4411 69.3332 17.5006 69.2835 17.5284C69.2291 17.5588 69.1814 17.6833 69.1636 17.8408C69.1457 17.9992 69.1059 18.1026 69.0626 18.1026C69.0156 18.1026 68.9778 18.2366 68.9517 18.4966C68.9234 18.7778 68.8896 18.8906 68.8334 18.8906C68.7707 18.8906 68.7547 19.0169 68.7547 19.5098C68.7547 19.968 68.773 20.1287 68.825 20.1282C68.9888 20.1264 69.1487 20.0541 69.1487 19.9817C69.1487 19.9302 69.2155 19.9038 69.3457 19.9038C69.4833 19.9038 69.5427 19.8784 69.5427 19.8194C69.5427 19.6869 69.6947 19.7207 69.7324 19.8616C69.7511 19.9313 69.7667 20.1972 69.7671 20.4526C69.7677 20.8276 69.7842 20.917 69.8523 20.917C69.9183 20.917 69.9369 20.994 69.9375 21.2688C69.9387 21.7804 69.9744 21.8739 70.1685 21.8739C70.2691 21.8739 70.3308 21.8444 70.3308 21.7961C70.3308 21.7532 70.3814 21.705 70.4434 21.6887C70.5053 21.6726 70.5559 21.6189 70.5559 21.5696C70.5559 21.5203 70.5939 21.4799 70.6404 21.4799C70.6868 21.4799 70.7248 21.4419 70.7248 21.3955C70.7248 21.3345 70.7873 21.311 70.95 21.311C71.1582 21.311 71.1751 21.3226 71.1743 21.4658C71.1731 21.7069 71.1131 21.8739 71.0278 21.8739C70.9764 21.8739 70.95 21.9407 70.95 22.0709C70.95 22.2011 70.9236 22.268 70.8721 22.268C70.8293 22.268 70.781 22.3186 70.7648 22.3805C70.7486 22.4425 70.695 22.4931 70.6457 22.4931C70.5829 22.4931 70.5559 22.5455 70.5559 22.6673C70.5559 22.794 70.5253 22.8494 70.4434 22.8708C70.381 22.8871 70.3308 22.9476 70.3308 23.0063C70.3308 23.0646 70.2948 23.1123 70.2508 23.1123C70.2068 23.1123 70.1541 23.1883 70.1338 23.2812C70.1134 23.374 70.0607 23.45 70.0167 23.45C69.9727 23.45 69.9368 23.5007 69.9368 23.5626C69.9368 23.6251 69.8992 23.6752 69.8523 23.6752C69.8059 23.6752 69.7679 23.7132 69.7679 23.7596C69.7679 23.8061 69.7275 23.844 69.6782 23.844C69.6289 23.844 69.5752 23.8947 69.5591 23.9566C69.5428 24.0185 69.4975 24.0692 69.4583 24.0692C69.4191 24.0692 69.3738 24.1199 69.3575 24.1818C69.3414 24.2437 69.2877 24.2944 69.2384 24.2944C69.1891 24.2944 69.1487 24.3324 69.1487 24.3788C69.1487 24.4252 69.1099 24.4632 69.0625 24.4632C69.0151 24.4632 68.9617 24.5012 68.9439 24.5477C68.9261 24.5941 68.8762 24.6321 68.8331 24.6321C68.79 24.6321 68.7547 24.6828 68.7547 24.7447C68.7547 24.8197 68.7171 24.8573 68.6421 24.8573C68.5802 24.8573 68.5295 24.8932 68.5295 24.9372C68.5295 24.9812 68.4535 25.0339 68.3607 25.0543C68.2678 25.0746 68.1918 25.1245 68.1918 25.165C68.1918 25.2056 68.1056 25.2549 68.0002 25.2747C67.8949 25.2944 67.7943 25.3479 67.7768 25.3935C67.7571 25.4449 67.6694 25.4764 67.5462 25.4764C67.4071 25.4764 67.3475 25.5018 67.3475 25.5609C67.3475 25.6177 67.2906 25.6453 67.1733 25.6453C67.0465 25.6453 66.9912 25.6759 66.9698 25.7579C66.9476 25.8425 66.893 25.8705 66.7498 25.8705C66.6181 25.8705 66.5594 25.8965 66.5594 25.9549C66.5594 26.0013 66.5243 26.0393 66.4816 26.0393C66.4387 26.0393 66.3904 26.09 66.3742 26.1519C66.3581 26.2138 66.3044 26.2645 66.2551 26.2645C66.2057 26.2645 66.1654 26.3025 66.1654 26.3489C66.1654 26.3953 66.1302 26.4333 66.0872 26.4333C66.0425 26.4333 65.9933 26.5175 65.9721 26.6304C65.95 26.7483 65.9022 26.8274 65.8533 26.8274C65.7952 26.8274 65.7714 26.893 65.7714 27.0525C65.7714 27.2057 65.7467 27.2777 65.6942 27.2777C65.5921 27.2777 65.5326 27.733 65.5809 28.1444C65.6057 28.3549 65.6435 28.4597 65.6947 28.4597C65.7448 28.4597 65.7714 28.528 65.7714 28.6568C65.7714 28.8162 65.7928 28.8538 65.8839 28.8538C65.9465 28.8538 65.9965 28.8913 65.9965 28.9382C65.9965 28.9846 66.0345 29.0226 66.081 29.0226C66.1278 29.0226 66.1654 29.0727 66.1654 29.1352C66.1654 29.2103 66.2029 29.2478 66.278 29.2478C66.3399 29.2478 66.3905 29.2847 66.3905 29.3297C66.3905 29.3787 66.4696 29.4264 66.5876 29.4485C66.6959 29.4688 66.7846 29.508 66.7846 29.5355C66.7846 29.6194 66.9392 29.5912 66.9738 29.5011C66.9916 29.4547 67.045 29.4167 67.0924 29.4167C67.1398 29.4167 67.1786 29.3787 67.1786 29.3322C67.1786 29.2858 67.2166 29.2478 67.263 29.2478C67.3099 29.2478 67.3475 29.1978 67.3475 29.1352C67.3475 29.0602 67.385 29.0226 67.46 29.0226C67.5226 29.0226 67.5726 28.9851 67.5726 28.9382C67.5726 28.8918 67.6106 28.8538 67.657 28.8538C67.7035 28.8538 67.7415 28.8134 67.7415 28.764C67.7415 28.7147 67.7921 28.6611 67.8541 28.6449C67.916 28.6287 67.9666 28.5804 67.9666 28.5376C67.9666 28.4815 68.0467 28.4597 68.2534 28.4597C68.4927 28.4597 68.545 28.4412 68.5695 28.3472C68.5939 28.254 68.6463 28.2346 68.8738 28.2346C69.0778 28.2346 69.1487 28.2133 69.1487 28.1521C69.1487 28.0957 69.2368 28.0579 69.4267 28.0327C69.5824 28.0121 69.7179 27.9616 69.7346 27.9182C69.7509 27.8755 69.8031 27.8406 69.8506 27.8406C69.898 27.8406 69.9368 27.8055 69.9368 27.7627C69.9368 27.7199 69.9874 27.6716 70.0493 27.6554C70.1433 27.6308 70.1619 27.5786 70.1619 27.3393C70.1619 27.1219 70.1823 27.0525 70.2463 27.0525C70.3053 27.0525 70.3308 26.9931 70.3308 26.8555C70.3308 26.696 70.3522 26.6585 70.4434 26.6585C70.5059 26.6585 70.5559 26.621 70.5559 26.5741C70.5559 26.5276 70.5963 26.4896 70.6457 26.4896C70.695 26.4896 70.7486 26.439 70.7648 26.3771C70.7857 26.297 70.8415 26.2645 70.9583 26.2645C71.0508 26.2645 71.1362 26.2283 71.1542 26.1816C71.1717 26.136 71.2722 26.0825 71.3776 26.0627C71.4862 26.0424 71.5691 25.993 71.5691 25.9486C71.5691 25.9 71.6305 25.8705 71.7314 25.8705C71.8464 25.8705 71.9023 25.8376 71.9232 25.7579C71.9446 25.6759 72 25.6453 72.1267 25.6453C72.244 25.6453 72.3009 25.6177 72.3009 25.5609C72.3009 25.5135 72.3511 25.4764 72.4152 25.4764C72.4781 25.4764 72.5436 25.44 72.5607 25.3954C72.5778 25.3509 72.6656 25.2982 72.7559 25.2784C72.8462 25.2585 72.9201 25.2092 72.9201 25.1686C72.9201 25.1281 73.0087 25.0783 73.1171 25.058C73.235 25.0359 73.3141 24.9881 73.3141 24.9391C73.3141 24.8941 73.3648 24.8573 73.4267 24.8573C73.4886 24.8573 73.5393 24.8213 73.5393 24.7773C73.5393 24.7333 73.6131 24.6811 73.7034 24.6613C73.7937 24.6414 73.8815 24.5888 73.8987 24.5442C73.9158 24.4997 73.9685 24.4632 74.016 24.4632C74.0634 24.4632 74.1021 24.4252 74.1021 24.3788C74.1021 24.3319 74.1522 24.2944 74.2147 24.2944C74.2898 24.2944 74.3273 24.2568 74.3273 24.1818C74.3273 24.1067 74.3648 24.0692 74.4399 24.0692C74.5024 24.0692 74.5525 24.0317 74.5525 23.9848C74.5525 23.9383 74.5905 23.9003 74.6369 23.9003C74.6838 23.9003 74.7213 23.8503 74.7213 23.7878C74.7213 23.7258 74.7564 23.6752 74.7992 23.6752C74.842 23.6752 74.8903 23.6245 74.9065 23.5626C74.9227 23.5007 74.9763 23.45 75.0256 23.45C75.075 23.45 75.1153 23.412 75.1153 23.3656C75.1153 23.3192 75.1533 23.2812 75.1998 23.2812C75.2588 23.2812 75.2842 23.3406 75.2842 23.4782C75.2842 23.6157 75.2588 23.6752 75.1998 23.6752C75.1408 23.6752 75.1153 23.7346 75.1153 23.8722C75.1153 24.0071 75.0895 24.0692 75.0334 24.0692C74.9845 24.0692 74.9367 24.1483 74.9146 24.2662C74.8935 24.3791 74.8443 24.4632 74.7995 24.4632C74.7565 24.4632 74.7213 24.5012 74.7213 24.5477C74.7213 24.5941 74.681 24.6321 74.6316 24.6321C74.5823 24.6321 74.5286 24.6828 74.5125 24.7447C74.4963 24.8066 74.4536 24.8573 74.4177 24.8573C74.3817 24.8573 74.3089 24.9079 74.2559 24.9698C74.2029 25.0317 74.1086 25.0824 74.0464 25.0824C73.9842 25.0824 73.9333 25.1175 73.9333 25.1603C73.9333 25.2031 73.8826 25.2514 73.8207 25.2676C73.7588 25.2838 73.7081 25.3271 73.7081 25.3639C73.7081 25.4006 73.7588 25.444 73.8207 25.4601C73.8826 25.4763 73.9333 25.5218 73.9333 25.5611C73.9333 25.6005 74.0219 25.6494 74.1303 25.6697C74.2482 25.6918 74.3273 25.7396 74.3273 25.7886C74.3273 25.8446 74.3894 25.8705 74.5243 25.8705C74.6536 25.8705 74.7213 25.897 74.7213 25.9476C74.7213 25.9976 74.8134 26.035 74.9831 26.0542C75.1406 26.072 75.2651 26.1197 75.2955 26.1741C75.3313 26.2381 75.4274 26.2645 75.6248 26.2645C75.8259 26.2645 75.9034 26.2864 75.9034 26.3432C75.9034 26.3993 76.0155 26.4332 76.2934 26.4611C76.5477 26.4867 76.694 26.5278 76.7138 26.5794C76.7343 26.6328 76.836 26.6585 77.0274 26.6585C77.2416 26.6585 77.3106 26.679 77.3106 26.7429C77.3106 26.7943 77.363 26.8274 77.4443 26.8274C77.6979 26.8274 77.9298 26.898 77.9298 26.9751C77.9298 27.0329 78.0228 27.0525 78.2957 27.0525C78.5732 27.0525 78.6616 27.0717 78.6616 27.132C78.6616 27.1809 78.7483 27.2262 78.8867 27.2495C79.0251 27.2729 79.1119 27.3182 79.1119 27.3671C79.1119 27.4204 79.1767 27.4465 79.3089 27.4465C79.4416 27.4465 79.5059 27.4727 79.5059 27.5265C79.5059 27.5705 79.5819 27.6232 79.6748 27.6436C79.7676 27.6639 79.8436 27.7166 79.8436 27.7606C79.8436 27.8046 79.8943 27.8406 79.9562 27.8406C80.0181 27.8406 80.0688 27.8756 80.0688 27.9184C80.0688 27.9613 80.1194 28.0096 80.1814 28.0258C80.2433 28.0419 80.2939 28.0956 80.2939 28.1449C80.2939 28.1942 80.3319 28.2346 80.3784 28.2346C80.4248 28.2346 80.4628 28.275 80.4628 28.3243C80.4628 28.3736 80.5135 28.4273 80.5754 28.4434C80.6377 28.4597 80.688 28.5202 80.688 28.5789C80.688 28.6372 80.7226 28.6849 80.765 28.6849C80.8128 28.6849 80.854 28.7739 80.8735 28.9196C80.8908 29.0487 80.9448 29.1766 80.9935 29.2038C81.0691 29.2462 81.082 29.4083 81.082 30.3173C81.082 31.2695 81.0717 31.3869 80.9841 31.436C80.9068 31.4793 80.8819 31.5862 80.8656 31.9454C80.8501 32.2867 80.8254 32.4 80.7664 32.4C80.7026 32.4 80.688 32.568 80.688 33.3006C80.688 34.0637 80.7009 34.2012 80.7724 34.2012C80.8363 34.2012 80.8568 34.2702 80.8568 34.4844C80.8568 34.6819 80.8819 34.7773 80.9397 34.7995C80.9853 34.817 81.0388 34.9175 81.0586 35.0229C81.0789 35.1315 81.1283 35.2144 81.1727 35.2144C81.2225 35.2144 81.2509 35.2775 81.2509 35.3886C81.2509 35.5154 81.2815 35.5707 81.3634 35.5921C81.4432 35.613 81.476 35.6689 81.476 35.7839C81.476 35.8906 81.5049 35.9462 81.5604 35.9462C81.6073 35.9462 81.6449 35.9962 81.6449 36.0588C81.6449 36.1338 81.6824 36.1713 81.7575 36.1713C81.8325 36.1713 81.87 36.2089 81.87 36.2839C81.87 36.359 81.9076 36.3965 81.9826 36.3965C82.0445 36.3965 82.0952 36.4325 82.0952 36.4765C82.0952 36.5205 82.1712 36.5731 82.2641 36.5935C82.3569 36.6139 82.4329 36.6666 82.4329 36.7105C82.4329 36.7546 82.4836 36.7905 82.5455 36.7905C82.608 36.7905 82.6581 36.8281 82.6581 36.875C82.6581 36.9293 82.7131 36.9597 82.8129 36.9602C83.0539 36.9614 83.221 37.0214 83.221 37.1067C83.221 37.1683 83.3505 37.1846 83.8401 37.1846C84.3465 37.1846 84.4593 37.1695 84.4593 37.102C84.4593 37.0456 84.548 37.0078 84.7408 36.9822C84.9235 36.958 85.0222 36.9178 85.0222 36.8677C85.0222 36.8169 85.0902 36.7905 85.221 36.7905C85.3458 36.7905 85.4318 36.7591 85.4522 36.7061C85.4703 36.6587 85.5541 36.6217 85.643 36.6217C85.7732 36.6217 85.8079 36.6517 85.8384 36.7905C85.8588 36.8834 85.9115 36.9594 85.9554 36.9594C86.0093 36.9594 86.0354 37.0237 86.0354 37.1564C86.0354 37.2992 86.0601 37.3534 86.1251 37.3534C86.1745 37.3534 86.2281 37.4041 86.2443 37.466C86.2605 37.5279 86.3088 37.5786 86.3516 37.5786C86.3944 37.5786 86.4294 37.6292 86.4294 37.6912C86.4294 37.7531 86.4654 37.8037 86.5094 37.8037C86.5534 37.8037 86.6057 37.8781 86.6257 37.9689C86.6528 38.0925 86.7031 38.1432 86.8253 38.17C86.9563 38.1988 86.9959 38.2442 87.025 38.3988C87.0449 38.505 87.093 38.5918 87.132 38.5918C87.1745 38.5918 87.2146 38.6959 87.2322 38.8521C87.2483 38.9952 87.2926 39.1315 87.3305 39.1549C87.4118 39.2052 87.4237 40.2771 87.3436 40.3312C87.3162 40.3497 87.2774 40.4092 87.2573 40.4634C87.2259 40.5487 87.1414 40.5619 86.6282 40.5619C86.1599 40.5619 86.0354 40.5783 86.0354 40.6401C86.0354 40.6848 85.9513 40.734 85.8384 40.7552C85.7205 40.7773 85.6414 40.825 85.6414 40.874C85.6414 40.919 85.6034 40.9559 85.557 40.9559C85.5105 40.9559 85.4725 40.9939 85.4725 41.0404C85.4725 41.0872 85.4225 41.1248 85.36 41.1248C85.2849 41.1248 85.2474 41.1623 85.2474 41.2374C85.2474 41.2993 85.2105 41.3499 85.1655 41.3499C85.1165 41.3499 85.0688 41.429 85.0466 41.547C85.0255 41.6598 84.9763 41.744 84.9315 41.744C84.8752 41.744 84.8534 41.8231 84.8534 42.0272C84.8534 42.227 84.8285 42.3199 84.7689 42.3428C84.7083 42.3661 84.6845 42.4609 84.6845 42.6788C84.6845 42.9111 84.7043 42.9823 84.7689 42.9823C84.8154 42.9823 84.8534 43.0077 84.8534 43.0386C84.8534 43.0752 85.6227 43.0949 87.0486 43.0949C88.4746 43.0949 89.2439 43.0752 89.2439 43.0386C89.2439 43.0077 89.2819 42.9823 89.3283 42.9823C89.3752 42.9823 89.4128 42.9323 89.4128 42.8697C89.4128 42.8078 89.4479 42.7572 89.4909 42.7572C89.5357 42.7572 89.5849 42.673 89.6061 42.5602C89.6282 42.4422 89.6759 42.3631 89.7249 42.3631C89.7888 42.3631 89.8068 42.2764 89.8068 41.9691C89.8068 41.6723 89.8259 41.5751 89.8842 41.5751C89.979 41.5751 90.0319 41.3307 90.0319 40.8926C90.0319 40.6502 90.0525 40.5619 90.1091 40.5619C90.1693 40.5619 90.1919 40.3934 90.2123 39.791C90.2298 39.2747 90.2601 39.0129 90.304 38.9983C90.3944 38.9682 90.397 37.203 90.3067 37.173C90.2663 37.1595 90.2332 36.8749 90.2143 36.3802C90.1929 35.8189 90.1658 35.6085 90.115 35.6085C90.0688 35.6085 90.0371 35.4826 90.0214 35.2369C90.004 34.9633 89.9726 34.8513 89.9023 34.812C89.8326 34.773 89.8068 34.6833 89.8068 34.4799C89.8068 34.2796 89.7848 34.2012 89.7286 34.2012C89.6839 34.2012 89.6347 34.1171 89.6135 34.0042C89.5914 33.8863 89.5436 33.8072 89.4947 33.8072C89.4386 33.8072 89.4128 33.7451 89.4128 33.6102C89.4128 33.4796 89.3864 33.4132 89.3346 33.4132C89.2898 33.4132 89.2406 33.329 89.2195 33.2162C89.1857 33.0362 89.1657 33.0192 88.9881 33.0192C88.8575 33.0192 88.7936 33.0454 88.7936 33.0991C88.7936 33.1431 88.7176 33.1958 88.6247 33.2162C88.5318 33.2366 88.4559 33.2892 88.4559 33.3332C88.4559 33.3772 88.4052 33.4132 88.3433 33.4132C88.2814 33.4132 88.2307 33.4484 88.2307 33.4914C88.2307 33.5361 88.1465 33.5853 88.0337 33.6065C87.9158 33.6286 87.8367 33.6763 87.8367 33.7253C87.8367 33.7909 87.7359 33.8072 87.3301 33.8072C86.9173 33.8072 86.8235 33.7916 86.8235 33.7228C86.8235 33.6763 86.7883 33.6383 86.7453 33.6383C86.7009 33.6383 86.6516 33.5554 86.6312 33.4468C86.6114 33.3414 86.558 33.2409 86.5124 33.2234C86.4419 33.1964 86.4294 32.9379 86.4294 31.5011C86.4294 30.036 86.4182 29.8107 86.345 29.8107C86.2906 29.8107 86.2603 29.7556 86.2598 29.6559C86.2586 29.4149 86.1986 29.2478 86.1133 29.2478C86.0618 29.2478 86.0354 29.181 86.0354 29.0508C86.0354 28.9132 86.01 28.8538 85.951 28.8538C85.7772 28.8538 85.8694 28.6895 86.0636 28.653C86.1764 28.6319 86.2606 28.5827 86.2606 28.5379C86.2606 28.4791 86.3526 28.4597 86.6317 28.4597C86.9555 28.4597 87.0066 28.4454 87.0323 28.3472C87.0544 28.2626 87.1091 28.2346 87.2522 28.2346C87.3813 28.2346 87.4426 28.2083 87.4426 28.1527C87.4426 28.1037 87.5217 28.056 87.6397 28.0339C87.7525 28.0127 87.8367 27.9635 87.8367 27.9188C87.8367 27.8758 87.8747 27.8406 87.9211 27.8406C87.9675 27.8406 88.0055 27.8026 88.0055 27.7561C88.0055 27.7092 88.0556 27.6717 88.1181 27.6717C88.1931 27.6717 88.2307 27.6342 88.2307 27.5591C88.2307 27.4972 88.2658 27.4465 88.3085 27.4465C88.3514 27.4465 88.3997 27.3959 88.4159 27.334C88.432 27.2721 88.4857 27.2214 88.535 27.2214C88.5971 27.2214 88.6247 27.1695 88.6247 27.0525C88.6247 26.9469 88.6537 26.8837 88.7019 26.8837C88.7486 26.8837 88.7935 26.7943 88.8152 26.6585C88.8385 26.5128 88.8808 26.4333 88.935 26.4333C89.0052 26.4333 89.0187 26.3055 89.0187 25.6453C89.0187 25.0119 89.0035 24.8573 88.9409 24.8573C88.8556 24.8573 88.7956 24.6902 88.7944 24.4492C88.7939 24.3494 88.7635 24.2944 88.7092 24.2944C88.6623 24.2944 88.6247 24.2443 88.6247 24.1818C88.6247 24.1199 88.5896 24.0692 88.5469 24.0692C88.504 24.0692 88.4557 24.0185 88.4395 23.9566C88.4234 23.8947 88.3697 23.844 88.3204 23.844C88.2583 23.844 88.2307 23.7922 88.2307 23.6752C88.2307 23.5582 88.2031 23.5063 88.141 23.5063C88.0917 23.5063 88.038 23.4557 88.0219 23.3937C88.0056 23.3318 87.9603 23.2812 87.9211 23.2812C87.8819 23.2812 87.8366 23.2305 87.8203 23.1686C87.8042 23.1067 87.7505 23.056 87.7012 23.056C87.6519 23.056 87.6115 23.018 87.6115 22.9716C87.6115 22.9251 87.5763 22.8871 87.5333 22.8871C87.4886 22.8871 87.4394 22.803 87.4182 22.6901C87.3961 22.5722 87.3484 22.4931 87.2994 22.4931C87.2544 22.4931 87.2175 22.4425 87.2175 22.3805C87.2175 22.3186 87.1828 22.268 87.1403 22.268C87.0881 22.268 87.0513 22.163 87.0264 21.9436C86.9828 21.5577 87.0328 21.2548 87.1401 21.2548C87.1826 21.2548 87.2175 21.2168 87.2175 21.1703C87.2175 21.1015 87.3113 21.0859 87.7241 21.0859C88.1243 21.0859 88.2307 21.1027 88.2307 21.1659C88.2307 21.2098 88.3041 21.262 88.3938 21.2817C88.4887 21.3025 88.5689 21.3632 88.5856 21.4268C88.623 21.57 88.7958 21.5678 88.8336 21.4236C88.8498 21.3617 88.8981 21.311 88.9409 21.311C88.9923 21.311 89.0187 21.2442 89.0187 21.114C89.0187 20.9819 88.9926 20.917 88.9393 20.917C88.8904 20.917 88.8451 20.8303 88.8217 20.6919C88.7984 20.5534 88.7531 20.4667 88.7042 20.4667C88.6605 20.4667 88.6247 20.4287 88.6247 20.3823C88.6247 20.3354 88.5747 20.2978 88.5121 20.2978C88.4502 20.2978 88.3996 20.261 88.3996 20.2159C88.3996 20.167 88.3205 20.1192 88.2025 20.0971C88.0897 20.0759 88.0055 20.0268 88.0055 19.982C88.0055 19.9196 87.8689 19.9038 87.3301 19.9038C86.7912 19.9038 86.6546 19.9196 86.6546 19.982C86.6546 20.0268 86.5704 20.0759 86.4576 20.0971C86.3397 20.1192 86.2606 20.167 86.2606 20.2159C86.2606 20.261 86.2099 20.2978 86.148 20.2978C86.073 20.2978 86.0354 20.3354 86.0354 20.4104C86.0354 20.4723 85.9983 20.523 85.9529 20.523C85.8964 20.523 85.8587 20.6117 85.8331 20.8044C85.8089 20.9872 85.7687 21.0859 85.7186 21.0859C85.6761 21.0859 85.6414 21.0352 85.6414 20.9733C85.6414 20.9114 85.6063 20.8607 85.5636 20.8607C85.4782 20.8607 85.4182 20.6937 85.417 20.4526C85.4165 20.3529 85.3862 20.2978 85.3318 20.2978C85.2728 20.2978 85.2474 20.2384 85.2474 20.1008C85.2474 19.9725 85.2207 19.9038 85.171 19.9038C85.1167 19.9038 85.0859 19.7864 85.0639 19.4954C85.0201 18.9165 85.0739 18.3277 85.1707 18.3277C85.2129 18.3277 85.2474 18.2771 85.2474 18.2151C85.2474 18.1526 85.2849 18.1026 85.3318 18.1026C85.3782 18.1026 85.4162 18.0646 85.4162 18.0181C85.4162 17.9712 85.4663 17.9337 85.5288 17.9337C85.6039 17.9337 85.6414 17.8962 85.6414 17.8211C85.6414 17.7169 85.6789 17.7085 86.148 17.7085C86.5482 17.7085 86.6546 17.7253 86.6546 17.7885C86.6546 17.8325 86.7298 17.885 86.8217 17.9052C86.9566 17.9348 86.9957 17.979 87.025 18.1348C87.0455 18.2445 87.0949 18.3277 87.1393 18.3277C87.1887 18.3277 87.2175 18.39 87.2175 18.4966C87.2175 18.6092 87.1893 18.6655 87.1331 18.6655C87.0682 18.6655 87.0486 18.7374 87.0486 18.975C87.0486 19.2815 87.0503 19.2846 87.2175 19.2846C87.3301 19.2846 87.3864 19.2565 87.3864 19.2002C87.3864 19.1408 87.4464 19.1158 87.5887 19.1158C87.7436 19.1158 87.7978 19.0894 87.8203 19.0032C87.8367 18.9409 87.8971 18.8906 87.9558 18.8906C88.0141 18.8906 88.0618 18.8526 88.0618 18.8062C88.0618 18.7597 88.0998 18.7217 88.1463 18.7217C88.1927 18.7217 88.2307 18.6867 88.2307 18.6439C88.2307 18.6011 88.2814 18.5528 88.3433 18.5366C88.4052 18.5204 88.4559 18.4668 88.4559 18.4174C88.4559 18.3681 88.4938 18.3277 88.5403 18.3277C88.5872 18.3277 88.6247 18.2777 88.6247 18.2151C88.6247 18.1532 88.6594 18.1026 88.7019 18.1026C88.8039 18.1026 88.8681 17.5388 88.8172 17.0894C88.7912 16.8594 88.7544 16.7516 88.7019 16.7516C88.6517 16.7516 88.6247 16.685 88.6247 16.5612C88.6247 16.4181 88.5967 16.3634 88.5121 16.3413C88.4448 16.3237 88.3996 16.2645 88.3996 16.194C88.3996 16.1268 88.3633 16.0762 88.3151 16.0762C88.2687 16.0762 88.2307 16.0508 88.2307 16.0199C88.2307 15.9889 88.2711 15.9636 88.3204 15.9636C88.3697 15.9636 88.4234 15.9129 88.4395 15.851C88.46 15.7726 88.5163 15.7384 88.6247 15.7384C88.7331 15.7384 88.7894 15.7042 88.8099 15.6258C88.8261 15.5639 88.8797 15.5133 88.929 15.5133C88.9784 15.5133 89.0187 15.4753 89.0187 15.4288C89.0187 15.3819 89.0688 15.3444 89.1313 15.3444C89.1932 15.3444 89.2439 15.3084 89.2439 15.2644C89.2439 15.2205 89.3183 15.1682 89.4091 15.1482C89.5332 15.1209 89.5833 15.0708 89.6106 14.9467C89.6305 14.8559 89.6828 14.7815 89.7268 14.7815C89.7708 14.7815 89.8068 14.7309 89.8068 14.6689C89.8068 14.5939 89.8443 14.5564 89.9194 14.5564C89.9944 14.5564 90.0319 14.5188 90.0319 14.4438C90.0319 14.3812 90.0695 14.3312 90.1164 14.3312C90.1732 14.3312 90.2008 14.2743 90.2008 14.157C90.2008 14.0303 90.2314 13.9749 90.3134 13.9535C90.398 13.9314 90.426 13.8767 90.426 13.7336C90.426 13.6099 90.453 13.5432 90.5031 13.5432C90.5531 13.5432 90.5906 13.4511 90.6097 13.2814C90.6275 13.1239 90.6752 12.9994 90.7296 12.9689C90.8055 12.9265 90.8199 12.7996 90.8192 12.1753C90.8184 11.3645 90.7911 11.179 90.6727 11.179C90.6194 11.179 90.5948 11.108 90.5948 10.9539C90.5948 10.7912 90.5714 10.7287 90.5104 10.7287C90.4539 10.7287 90.426 10.6722 90.426 10.5581C90.426 10.4597 90.3908 10.374 90.3431 10.3556C90.2975 10.3381 90.244 10.2376 90.2242 10.1322C90.2045 10.0269 90.1551 9.94065 90.1146 9.94065C90.074 9.94065 90.0242 9.86466 90.0038 9.77179C89.9834 9.67891 89.9307 9.60292 89.8868 9.60292C89.8428 9.60292 89.8068 9.55226 89.8068 9.49034C89.8068 9.41531 89.7692 9.37776 89.6942 9.37776C89.6192 9.37776 89.5816 9.34022 89.5816 9.26519C89.5816 9.20265 89.5441 9.15261 89.4972 9.15261C89.4508 9.15261 89.4128 9.11461 89.4128 9.06817C89.4128 9.02174 89.3759 8.98374 89.3309 8.98374C89.2376 8.98374 89.1724 9.25246 89.1937 9.54843C89.2015 9.65583 89.2033 9.96531 89.1977 10.2362C89.1896 10.6319 89.171 10.7287 89.1032 10.7287C89.0383 10.7287 89.0187 10.8006 89.0187 11.0383C89.0187 11.2649 88.9978 11.3479 88.9406 11.3479C88.8958 11.3479 88.8466 11.432 88.8254 11.5449C88.8033 11.6628 88.7556 11.7419 88.7066 11.7419C88.6616 11.7419 88.6247 11.7926 88.6247 11.8545C88.6247 11.9164 88.5887 11.9671 88.5447 11.9671C88.5008 11.9671 88.4485 12.0414 88.4285 12.1323C88.4016 12.2546 88.3509 12.3065 88.2328 12.3325C88.1411 12.3526 88.0611 12.4141 88.0447 12.4769C88.029 12.537 87.9784 12.5862 87.9324 12.5862C87.8864 12.5862 87.8341 12.6242 87.8163 12.6707C87.7974 12.72 87.713 12.7551 87.6133 12.7551C87.5052 12.7551 87.4426 12.7838 87.4426 12.8333C87.4426 12.878 87.3585 12.9272 87.2456 12.9484C87.1277 12.9705 87.0486 13.0183 87.0486 13.0672C87.0486 13.1233 86.9865 13.1491 86.8516 13.1491C86.714 13.1491 86.6546 13.1746 86.6546 13.2336C86.6546 13.2805 86.6046 13.318 86.542 13.318C86.467 13.318 86.4294 13.3555 86.4294 13.4306C86.4294 13.5217 86.3919 13.5432 86.2324 13.5432C86.073 13.5432 86.0354 13.5646 86.0354 13.6557C86.0354 13.7308 85.9979 13.7683 85.9228 13.7683C85.8603 13.7683 85.8103 13.8059 85.8103 13.8527C85.8103 13.8992 85.7723 13.9372 85.7258 13.9372C85.6789 13.9372 85.6414 13.9872 85.6414 14.0498C85.6414 14.1123 85.6039 14.1623 85.557 14.1623C85.5105 14.1623 85.4725 14.2003 85.4725 14.2468C85.4725 14.2937 85.4225 14.3312 85.36 14.3312C85.2849 14.3312 85.2474 14.3687 85.2474 14.4438C85.2474 14.5057 85.2105 14.5564 85.1655 14.5564C85.1165 14.5564 85.0688 14.6354 85.0466 14.7534C85.0255 14.8662 84.9763 14.9504 84.9315 14.9504C84.8797 14.9504 84.8534 15.0168 84.8534 15.1474C84.8534 15.2823 84.8275 15.3444 84.7715 15.3444C84.7225 15.3444 84.6747 15.4235 84.6526 15.5414C84.6323 15.6498 84.5838 15.7384 84.5448 15.7384C84.5023 15.7384 84.4622 15.843 84.4445 16.0002C84.4267 16.1577 84.3789 16.2822 84.3246 16.3126C84.2606 16.3484 84.2342 16.4445 84.2342 16.6419C84.2342 16.852 84.2134 16.9205 84.1497 16.9205C84.0866 16.9205 84.0651 16.9881 84.0645 17.1879C84.0636 17.5353 84.0148 17.7085 83.918 17.7085C83.8591 17.7085 83.8401 17.8046 83.8401 18.1026C83.8401 18.4153 83.8227 18.4966 83.7557 18.4966C83.6852 18.4966 83.6713 18.6123 83.6713 19.2002C83.6713 19.7881 83.6852 19.9038 83.7557 19.9038C83.8196 19.9038 83.8401 19.9728 83.8401 20.187C83.8401 20.3845 83.8653 20.4799 83.9231 20.5021C83.9687 20.5196 84.0221 20.6201 84.0419 20.7255C84.0623 20.8341 84.1116 20.917 84.156 20.917C84.2059 20.917 84.2342 20.9801 84.2342 21.0912C84.2342 21.2179 84.2648 21.2733 84.3468 21.2947C84.4091 21.311 84.4593 21.3715 84.4593 21.4302C84.4593 21.4885 84.4953 21.5362 84.5393 21.5362C84.5833 21.5362 84.636 21.6122 84.6563 21.7051C84.6767 21.7979 84.7294 21.8739 84.7734 21.8739C84.8174 21.8739 84.8534 21.9246 84.8534 21.9865C84.8534 22.049 84.8909 22.0991 84.9378 22.0991C84.9842 22.0991 85.0222 22.1371 85.0222 22.1835C85.0222 22.2304 85.0723 22.268 85.1348 22.268C85.2098 22.268 85.2474 22.3055 85.2474 22.3805C85.2474 22.4425 85.2824 22.4931 85.3252 22.4931C85.3681 22.4931 85.4164 22.5438 85.4326 22.6057C85.4487 22.6676 85.5024 22.7183 85.5517 22.7183C85.601 22.7183 85.6414 22.7563 85.6414 22.8027C85.6414 22.8491 85.6794 22.8871 85.7258 22.8871C85.7723 22.8871 85.8103 22.9251 85.8103 22.9716C85.8103 23.0185 85.8603 23.056 85.9228 23.056C85.9979 23.056 86.0354 23.0935 86.0354 23.1686C86.0354 23.2305 86.0705 23.2812 86.1133 23.2812C86.1561 23.2812 86.2044 23.3318 86.2206 23.3937C86.2368 23.4557 86.2904 23.5063 86.3397 23.5063C86.3891 23.5063 86.4294 23.5443 86.4294 23.5907C86.4294 23.6372 86.4645 23.6752 86.5073 23.6752C86.5501 23.6752 86.5984 23.7258 86.6146 23.7878C86.6308 23.8497 86.6844 23.9003 86.7337 23.9003C86.7831 23.9003 86.8235 23.9391 86.8235 23.9865C86.8235 24.034 86.8615 24.0873 86.9079 24.1051C86.9543 24.123 86.9923 24.1723 86.9923 24.2148C86.9923 24.3252 86.5393 24.2756 86.4736 24.1581C86.4046 24.0349 85.4725 24.0261 85.4725 24.1487C85.4725 24.1975 85.3858 24.2429 85.2474 24.2662C85.109 24.2896 85.0222 24.3349 85.0222 24.3837C85.0222 24.4275 84.9842 24.4632 84.9378 24.4632C84.8909 24.4632 84.8534 24.5133 84.8534 24.5758C84.8534 24.6377 84.8183 24.6884 84.7755 24.6884C84.6902 24.6884 84.6302 24.8554 84.629 25.0965C84.6285 25.1962 84.5981 25.2513 84.5438 25.2513C84.4848 25.2513 84.4593 25.3107 84.4593 25.4483C84.4593 25.5859 84.4848 25.6453 84.5438 25.6453C84.5907 25.6453 84.6282 25.6953 84.6282 25.7579C84.6282 25.8329 84.6657 25.8705 84.7408 25.8705C84.8158 25.8705 84.8534 25.8329 84.8534 25.7579C84.8534 25.6828 84.8909 25.6453 84.9659 25.6453C85.0278 25.6453 85.0785 25.6097 85.0785 25.5661C85.0785 25.4751 85.5031 25.4336 86.0776 25.4683C86.3294 25.4835 86.4294 25.5117 86.4294 25.5674C86.4294 25.6102 86.4698 25.6453 86.5192 25.6453C86.5685 25.6453 86.6221 25.696 86.6383 25.7579C86.6545 25.8198 86.7028 25.8705 86.7456 25.8705C86.8061 25.8705 86.8235 25.9833 86.8235 26.3771C86.8235 26.7898 86.8078 26.8837 86.739 26.8837C86.6926 26.8837 86.6546 26.9217 86.6546 26.9681C86.6546 27.0271 86.5952 27.0525 86.4576 27.0525C86.327 27.0525 86.2606 27.0789 86.2606 27.1307C86.2606 27.2437 85.9175 27.292 85.4364 27.247C85.1401 27.2192 85.0222 27.186 85.0222 27.1304C85.0222 27.0821 84.9605 27.0525 84.8599 27.0525C84.7449 27.0525 84.689 27.0197 84.6682 26.9399C84.652 26.878 84.5984 26.8274 84.5491 26.8274C84.4997 26.8274 84.4593 26.7894 84.4593 26.7429C84.4593 26.696 84.4093 26.6585 84.3468 26.6585C84.2842 26.6585 84.2342 26.621 84.2342 26.5741C84.2342 26.5276 84.1962 26.4896 84.1497 26.4896C84.1028 26.4896 84.0653 26.4396 84.0653 26.3771C84.0653 26.302 84.0278 26.2645 83.9527 26.2645C83.8908 26.2645 83.8401 26.2285 83.8401 26.1845C83.8401 26.1405 83.7642 26.0878 83.6713 26.0675C83.5784 26.0471 83.5024 25.9944 83.5024 25.9504C83.5024 25.9064 83.4547 25.8705 83.3964 25.8705C83.3377 25.8705 83.2773 25.8202 83.2609 25.7579C83.2448 25.696 83.1911 25.6453 83.1418 25.6453C83.0925 25.6453 83.0521 25.6073 83.0521 25.5609C83.0521 25.5019 82.9927 25.4764 82.8551 25.4764C82.6956 25.4764 82.6581 25.455 82.6581 25.3639C82.6581 25.2727 82.6205 25.2513 82.4611 25.2513C82.3235 25.2513 82.2641 25.2258 82.2641 25.1668C82.2641 25.1204 82.2237 25.0824 82.1743 25.0824C82.125 25.0824 82.0714 25.0317 82.0552 24.9698C82.0343 24.8901 81.9784 24.8573 81.8634 24.8573C81.7567 24.8573 81.7012 24.8284 81.7012 24.7728C81.7012 24.7259 81.6511 24.6884 81.5886 24.6884C81.5267 24.6884 81.476 24.6515 81.476 24.6065C81.476 24.5575 81.3969 24.5098 81.279 24.4877C81.1706 24.4673 81.082 24.4184 81.082 24.3788C81.082 24.3392 80.9933 24.2903 80.885 24.2699C80.767 24.2478 80.688 24.2001 80.688 24.1511C80.688 24.095 80.6258 24.0692 80.491 24.0692C80.3315 24.0692 80.2939 24.0478 80.2939 23.9566C80.2939 23.8816 80.2564 23.844 80.1814 23.844C80.1188 23.844 80.0688 23.8065 80.0688 23.7596C80.0688 23.7127 80.0187 23.6752 79.9562 23.6752C79.8943 23.6752 79.8436 23.6392 79.8436 23.5952C79.8436 23.5512 79.7676 23.4985 79.6748 23.4782C79.5361 23.4477 79.5059 23.4129 79.5059 23.2832C79.5059 23.1043 79.6065 23.058 79.9984 23.0568C80.1732 23.0562 80.2376 23.0333 80.2376 22.9716C80.2376 22.9189 80.2909 22.8871 80.3789 22.8871C80.4566 22.8871 80.5636 22.8365 80.6166 22.7746C80.6696 22.7126 80.7453 22.662 80.7849 22.662C80.8245 22.662 80.8568 22.6269 80.8568 22.5841C80.8568 22.5413 80.9075 22.493 80.9694 22.4768C81.1302 22.4347 81.1344 22.0428 80.9741 22.0428C80.9148 22.0428 80.8569 22.015 80.8456 21.981C80.8343 21.947 80.7055 21.9057 80.5595 21.8892C80.3994 21.8712 80.2939 21.8312 80.2939 21.7884C80.2939 21.7495 80.2062 21.7011 80.0991 21.681C79.9317 21.6496 79.8991 21.617 79.8677 21.4496C79.8468 21.3384 79.7975 21.2548 79.7529 21.2548C79.6452 21.2548 79.6494 20.9232 79.7577 20.8817C79.8033 20.8642 79.8567 20.7636 79.8765 20.6583C79.8969 20.5496 79.9462 20.4667 79.9906 20.4667C80.0336 20.4667 80.0688 20.4287 80.0688 20.3823C80.0688 20.3135 80.1626 20.2978 80.5754 20.2978C80.9882 20.2978 81.082 20.3135 81.082 20.3823C81.082 20.4381 81.1378 20.4667 81.2464 20.4667C81.3835 20.4667 81.417 20.4385 81.4481 20.2966C81.4902 20.1052 81.4333 19.6787 81.3657 19.6787C81.3415 19.6787 81.3048 19.552 81.2843 19.3972C81.2587 19.2045 81.221 19.1158 81.1645 19.1158C81.1083 19.1158 81.082 19.0551 81.082 18.9253C81.082 18.7822 81.054 18.7275 80.9694 18.7054C80.8875 18.684 80.8568 18.6286 80.8568 18.5019C80.8568 18.3653 80.8811 18.3277 80.9694 18.3277C81.0444 18.3277 81.082 18.2902 81.082 18.2151C81.082 18.1401 81.1195 18.1026 81.1946 18.1026C81.2571 18.1026 81.3071 18.065 81.3071 18.0181C81.3071 17.9717 81.3451 17.9337 81.3916 17.9337C81.4385 17.9337 81.476 17.8837 81.476 17.8211C81.476 17.7586 81.5136 17.7085 81.5604 17.7085C81.6069 17.7085 81.6449 17.6735 81.6449 17.6307C81.6449 17.5879 81.6955 17.5396 81.7575 17.5234C81.8515 17.4988 81.87 17.4466 81.87 17.2072C81.87 16.9978 81.8915 16.9205 81.9495 16.9205C82.0475 16.9205 82.1198 16.5414 82.0673 16.3026C82.0361 16.1607 82.0027 16.1324 81.8656 16.1324C81.7636 16.1324 81.7012 16.1618 81.7012 16.2098C81.7012 16.2673 81.5815 16.2934 81.2368 16.3114C80.6127 16.3439 80.2939 16.3099 80.2939 16.211C80.2939 16.1678 80.2433 16.1324 80.1814 16.1324C80.1188 16.1324 80.0688 16.0949 80.0688 16.048C80.0688 16.0016 80.0341 15.9636 79.9917 15.9636C79.9077 15.9636 79.8453 15.6865 79.8442 15.3092C79.8433 14.9654 79.9039 14.7252 79.9914 14.7252C80.0339 14.7252 80.0688 14.6898 80.0688 14.6465C80.0688 14.5544 80.4316 14.5119 80.9223 14.5466C81.1762 14.5646 81.2467 14.5908 81.2689 14.6754C81.2841 14.7337 81.337 14.7815 81.3863 14.7815C81.4356 14.7815 81.476 14.8195 81.476 14.8659C81.476 15.0032 81.8171 14.9777 81.8537 14.8378C81.8699 14.7759 81.9151 14.7252 81.954 14.7252C82.0347 14.7252 82.0952 14.4785 82.0952 14.1493V13.9252L82.5552 13.9461C82.8541 13.9597 83.0233 13.9914 83.0383 14.0365C83.0683 14.1266 83.8778 14.1337 83.9076 14.0442C83.919 14.0102 84.0477 13.9689 84.1938 13.9525C84.3665 13.933 84.4593 13.8956 84.4593 13.8454C84.4593 13.7948 84.527 13.7683 84.6563 13.7683C84.8158 13.7683 84.8534 13.7469 84.8534 13.6557C84.8534 13.5807 84.8909 13.5432 84.9659 13.5432C85.0285 13.5432 85.0785 13.5056 85.0785 13.4587C85.0785 13.4123 85.1165 13.3743 85.1629 13.3743C85.2098 13.3743 85.2474 13.3242 85.2474 13.2617C85.2474 13.1992 85.2849 13.1491 85.3318 13.1491C85.3782 13.1491 85.4162 13.1088 85.4162 13.0594C85.4162 13.0101 85.4669 12.9565 85.5288 12.9403C85.6301 12.9138 85.6414 12.8635 85.6414 12.4389C85.6414 12.0738 85.6237 11.9671 85.5632 11.9671C85.5189 11.9671 85.4695 11.8843 85.4492 11.7758C85.4224 11.6331 85.3773 11.5755 85.2715 11.5489C85.0963 11.505 85.0222 11.5466 85.0222 11.6889C85.0222 11.7491 84.9842 11.7982 84.9378 11.7982C84.875 11.7982 84.8534 11.8644 84.8534 12.0568C84.8534 12.268 84.8328 12.3207 84.7408 12.3448C84.6789 12.361 84.6282 12.4093 84.6282 12.4521C84.6282 12.4949 84.5902 12.53 84.5438 12.53C84.4969 12.53 84.4593 12.58 84.4593 12.6425C84.4593 12.7176 84.4218 12.7551 84.3468 12.7551C84.2848 12.7551 84.2342 12.7923 84.2342 12.8376C84.2342 12.8941 84.1455 12.9319 83.9527 12.9574C83.77 12.9817 83.6713 13.0219 83.6713 13.072C83.6713 13.1305 83.5692 13.1491 83.2491 13.1491H82.8269L82.8277 12.9943C82.8293 12.6883 82.8864 12.5907 83.0864 12.5532C83.1914 12.5336 83.2773 12.4854 83.2773 12.4463C83.2773 12.4072 83.351 12.3604 83.4411 12.3424C83.5667 12.3173 83.6138 12.2696 83.6426 12.1383C83.6633 12.0441 83.7125 11.9671 83.7521 11.9671C83.8009 11.9671 83.8338 11.8362 83.8548 11.5586C83.8968 11.0029 83.8443 10.391 83.7546 10.391C83.716 10.391 83.6712 10.3403 83.655 10.2784C83.6335 10.1964 83.5782 10.1658 83.4514 10.1658C83.2548 10.1658 83.2509 10.1524 83.275 9.55699C83.2878 9.23665 83.2775 9.19843 83.1707 9.17051C83.1055 9.15345 83.0521 9.10775 83.0521 9.06891C83.0521 9.0268 82.9473 8.98656 82.7918 8.96905C82.6487 8.95289 82.5122 8.90843 82.4886 8.87021C82.4642 8.83069 82.2732 8.78842 82.0453 8.77209C81.7675 8.75222 81.6449 8.72087 81.6449 8.66982C81.6449 8.61206 81.3948 8.59242 80.4888 8.57885C79.6045 8.56563 79.3219 8.54407 79.2868 8.48699C79.2548 8.43526 79.0398 8.4025 78.5853 8.3801C78.1117 8.35679 77.9298 8.32809 77.9298 8.27669C77.9298 8.23757 77.8285 8.18849 77.7046 8.16755C77.5662 8.14419 77.4795 8.09888 77.4795 8.05002C77.4795 8.00628 77.4288 7.97054 77.3669 7.97054C77.3044 7.97054 77.2543 7.93299 77.2543 7.8861C77.2543 7.83967 77.2163 7.80167 77.1699 7.80167C77.1235 7.80167 77.0855 7.76368 77.0855 7.71724C77.0855 7.6708 77.0475 7.6328 77.001 7.6328C76.9546 7.6328 76.9166 7.58507 76.9166 7.52681C76.9166 7.4681 76.8663 7.40765 76.804 7.39132C76.7421 7.37517 76.6914 7.32153 76.6914 7.27222C76.6914 7.2072 76.6372 7.18249 76.4944 7.18249C76.3569 7.18249 76.2974 7.20793 76.2974 7.26692ZM80.2939 10.2502C80.2939 10.2967 80.3343 10.3347 80.3837 10.3347C80.433 10.3347 80.4866 10.3853 80.5028 10.4473C80.5293 10.5485 80.5795 10.5598 81.0041 10.5598H81.476V10.3628V10.1658H80.885C80.3971 10.1658 80.2939 10.1806 80.2939 10.2502ZM80.8568 12.4377C80.8568 12.488 80.9569 12.5261 81.1481 12.5488C81.3083 12.5677 81.4576 12.6127 81.4798 12.6487C81.5021 12.6847 81.6497 12.7266 81.8077 12.7418C82.0005 12.7603 82.0952 12.7949 82.0952 12.8467C82.0952 12.8892 82.1332 12.924 82.1796 12.924C82.2386 12.924 82.2641 12.8645 82.2641 12.727C82.2641 12.5894 82.2386 12.53 82.1796 12.53C82.1332 12.53 82.0952 12.492 82.0952 12.4455C82.0952 12.3756 81.9889 12.3611 81.476 12.3611C80.9913 12.3611 80.8568 12.3777 80.8568 12.4377ZM80.3924 13.3568C80.3383 13.371 80.2939 13.4187 80.2939 13.4628C80.2939 13.5273 80.4106 13.5432 80.885 13.5432C81.3489 13.5432 81.476 13.5265 81.476 13.4658C81.476 13.4232 81.3969 13.3725 81.3001 13.3532C81.1056 13.3143 80.5466 13.3165 80.3924 13.3568ZM78.0987 27.728C78.0987 27.7899 78.0638 27.8406 78.0213 27.8406C77.9441 27.8406 77.8735 28.0725 77.8735 28.3261C77.8735 28.4073 77.8404 28.4597 77.7891 28.4597C77.742 28.4597 77.7046 28.5098 77.7046 28.5729C77.7046 28.6351 77.654 28.7294 77.5921 28.7824C77.5301 28.8354 77.4795 28.9111 77.4795 28.9507C77.4795 28.9903 77.4415 29.0226 77.3951 29.0226C77.3482 29.0226 77.3106 29.0727 77.3106 29.1352C77.3106 29.2103 77.2731 29.2478 77.198 29.2478C77.1355 29.2478 77.0855 29.2853 77.0855 29.3322C77.0855 29.3787 77.0475 29.4167 77.001 29.4167C76.9541 29.4167 76.9166 29.4667 76.9166 29.5292C76.9166 29.6043 76.8791 29.6418 76.804 29.6418C76.7421 29.6418 76.6914 29.677 76.6914 29.72C76.6914 29.7648 76.6073 29.814 76.4944 29.8351C76.3765 29.8572 76.2974 29.905 76.2974 29.9539C76.2974 29.999 76.2468 30.0358 76.1848 30.0358C76.1229 30.0358 76.0723 30.0727 76.0723 30.1177C76.0723 30.1667 75.9932 30.2144 75.8752 30.2366C75.7624 30.2577 75.6782 30.3069 75.6782 30.3517C75.6782 30.408 75.5994 30.4299 75.3968 30.4299C75.188 30.4299 75.1153 30.451 75.1153 30.5118C75.1153 30.5607 75.0363 30.6085 74.9183 30.6306C74.8055 30.6518 74.7213 30.701 74.7213 30.7457C74.7213 30.797 74.6559 30.8239 74.5309 30.8239C74.3878 30.8239 74.3331 30.8519 74.311 30.9365C74.2895 31.0184 74.2342 31.049 74.1074 31.049C73.9901 31.049 73.9333 31.0766 73.9333 31.1335C73.9333 31.1804 73.8832 31.2179 73.8207 31.2179C73.7588 31.2179 73.7081 31.2539 73.7081 31.2979C73.7081 31.3419 73.6321 31.3945 73.5393 31.4149C73.4464 31.4353 73.3704 31.488 73.3704 31.5319C73.3704 31.576 73.3197 31.6119 73.2578 31.6119C73.1959 31.6119 73.1452 31.647 73.1452 31.6898C73.1452 31.7326 73.0946 31.7809 73.0327 31.7971C72.9707 31.8133 72.9201 31.8669 72.9201 31.9162C72.9201 31.9656 72.8884 32.0064 72.8497 32.0069C72.7639 32.0081 72.5261 32.2511 72.5261 32.3376C72.5261 32.3719 72.4881 32.4 72.4416 32.4C72.3947 32.4 72.3572 32.45 72.3572 32.5126C72.3572 32.5876 72.3196 32.6251 72.2446 32.6251C72.1535 32.6251 72.132 32.6627 72.132 32.8222C72.132 32.9518 72.1056 33.0192 72.0546 33.0192C71.9775 33.0192 71.9069 33.2511 71.9069 33.5047C71.9069 33.5859 71.8738 33.6383 71.8224 33.6383C71.7528 33.6383 71.738 33.7415 71.738 34.2294C71.738 34.7172 71.7528 34.8204 71.8224 34.8204C71.8829 34.8204 71.9069 34.8822 71.9069 35.0385C71.9069 35.3705 71.9686 35.6085 72.0546 35.6085C72.1097 35.6085 72.132 35.6877 72.132 35.8833C72.132 36.1109 72.1514 36.1633 72.2446 36.1877C72.3266 36.2091 72.3572 36.2645 72.3572 36.3912C72.3572 36.5023 72.3855 36.5654 72.4354 36.5654C72.4797 36.5654 72.5291 36.6483 72.5495 36.7569C72.5692 36.8623 72.6227 36.9628 72.6683 36.9803C72.7261 37.0025 72.7512 37.0979 72.7512 37.2954C72.7512 37.541 72.7363 37.5786 72.6386 37.5786C72.5636 37.5786 72.5261 37.6161 72.5261 37.6912C72.5261 37.7537 72.4885 37.8037 72.4416 37.8037C72.3952 37.8037 72.3572 37.8417 72.3572 37.8882C72.3572 37.9351 72.3071 37.9726 72.2446 37.9726C72.1696 37.9726 72.132 38.0101 72.132 38.0852C72.132 38.1477 72.0945 38.1978 72.0476 38.1978C72.0012 38.1978 71.9632 38.2358 71.9632 38.2822C71.9632 38.3291 71.9131 38.3666 71.8506 38.3666C71.7755 38.3666 71.738 38.4042 71.738 38.4792C71.738 38.5417 71.7005 38.5918 71.6536 38.5918C71.6071 38.5918 71.5691 38.6298 71.5691 38.6762C71.5691 38.7231 71.5191 38.7606 71.4566 38.7606C71.3815 38.7606 71.344 38.7982 71.344 38.8732C71.344 38.9358 71.3064 38.9858 71.2595 38.9858C71.2131 38.9858 71.1751 39.0262 71.1751 39.0755C71.1751 39.1248 71.1245 39.1785 71.0625 39.1946C71.0006 39.2108 70.95 39.2591 70.95 39.302C70.95 39.3448 70.912 39.3798 70.8655 39.3798C70.8191 39.3798 70.7811 39.4202 70.7811 39.4695C70.7811 39.5189 70.7304 39.5725 70.6685 39.5887C70.6066 39.6049 70.5559 39.6532 70.5559 39.696C70.5559 39.7388 70.5053 39.7738 70.4434 39.7738C70.3808 39.7738 70.3308 39.8114 70.3308 39.8583C70.3308 39.9047 70.2984 39.9427 70.2588 39.9427C70.2193 39.9427 70.1436 39.9934 70.0905 40.0553C69.9746 40.1907 69.5427 40.2184 69.5427 40.0905C69.5427 40.0133 69.3108 39.9427 69.0572 39.9427C68.976 39.9427 68.9236 39.9096 68.9236 39.8583C68.9236 39.7913 68.8423 39.7738 68.5295 39.7738C68.2168 39.7738 68.1355 39.7913 68.1355 39.8583C68.1355 39.9173 68.0761 39.9427 67.9385 39.9427C67.8058 39.9427 67.7415 39.9688 67.7415 40.0227C67.7415 40.0667 67.6663 40.1191 67.5744 40.1393C67.4394 40.169 67.4004 40.2131 67.3711 40.3689C67.3506 40.4787 67.3012 40.5619 67.2568 40.5619C67.2138 40.5619 67.1786 40.6126 67.1786 40.6745C67.1786 40.7364 67.1435 40.787 67.1007 40.787C67.0154 40.787 66.9554 40.9541 66.9542 41.1951C66.9538 41.2873 66.9226 41.3499 66.8773 41.3499C66.7926 41.3499 66.7074 42.1322 66.7623 42.4067L66.793 42.5602L68.576 42.5496C69.5566 42.5438 70.4919 42.5374 70.6544 42.5355C70.878 42.5329 70.95 42.5115 70.95 42.4476C70.95 42.3836 71.0194 42.3631 71.2367 42.3631C71.476 42.3631 71.5283 42.3446 71.5528 42.2506C71.5772 42.1574 71.6296 42.138 71.8572 42.138C72.0542 42.138 72.132 42.1159 72.132 42.0598C72.132 42.0154 72.2149 41.9661 72.3236 41.9457C72.429 41.9259 72.5295 41.8725 72.547 41.8269C72.5653 41.7791 72.6511 41.744 72.7495 41.744C72.8575 41.744 72.9201 41.7153 72.9201 41.6658C72.9201 41.621 73.0042 41.5718 73.1171 41.5507C73.235 41.5285 73.3141 41.4808 73.3141 41.4318C73.3141 41.3758 73.3762 41.3499 73.5111 41.3499C73.6417 41.3499 73.7081 41.3236 73.7081 41.2718C73.7081 41.227 73.7923 41.1778 73.9051 41.1566C74.0231 41.1345 74.1021 41.0868 74.1021 41.0378C74.1021 40.9818 74.1643 40.9559 74.2992 40.9559C74.4419 40.9559 74.4962 40.9312 74.4962 40.8662C74.4962 40.8169 74.5468 40.7632 74.6087 40.7471C74.6707 40.7309 74.7213 40.6826 74.7213 40.6397C74.7213 40.5883 74.7881 40.5619 74.9183 40.5619C75.0778 40.5619 75.1153 40.5404 75.1153 40.4493C75.1153 40.3743 75.1529 40.3367 75.2279 40.3367C75.2905 40.3367 75.3405 40.2992 75.3405 40.2523C75.3405 40.196 75.3968 40.1679 75.5094 40.1679C75.6263 40.1679 75.6782 40.1403 75.6782 40.0781C75.6782 40.0288 75.7289 39.9752 75.7908 39.959C75.8527 39.9428 75.9034 39.8945 75.9034 39.8517C75.9034 39.8089 75.9541 39.7738 76.016 39.7738C76.0779 39.7738 76.1285 39.7379 76.1285 39.6939C76.1285 39.6499 76.2045 39.5972 76.2974 39.5768C76.3903 39.5565 76.4663 39.5038 76.4663 39.4598C76.4663 39.4158 76.5169 39.3798 76.5789 39.3798C76.6539 39.3798 76.6914 39.3423 76.6914 39.2672C76.6914 39.1922 76.729 39.1547 76.804 39.1547C76.8666 39.1547 76.9166 39.1171 76.9166 39.0702C76.9166 39.0238 76.9546 38.9858 77.001 38.9858C77.0479 38.9858 77.0855 38.9358 77.0855 38.8732C77.0855 38.7982 77.123 38.7606 77.198 38.7606C77.2606 38.7606 77.3106 38.7231 77.3106 38.6762C77.3106 38.6298 77.3486 38.5918 77.3951 38.5918C77.4419 38.5918 77.4795 38.5417 77.4795 38.4792C77.4795 38.4042 77.517 38.3666 77.5921 38.3666C77.6546 38.3666 77.7046 38.3291 77.7046 38.2822C77.7046 38.2358 77.7426 38.1978 77.7891 38.1978C77.836 38.1978 77.8735 38.1477 77.8735 38.0852C77.8735 38.0101 77.9111 37.9726 77.9861 37.9726C78.0772 37.9726 78.0987 37.9351 78.0987 37.7756C78.0987 37.6161 78.1201 37.5786 78.2112 37.5786C78.2738 37.5786 78.3238 37.541 78.3238 37.4941C78.3238 37.4477 78.3618 37.4097 78.4083 37.4097C78.4551 37.4097 78.4927 37.3597 78.4927 37.2971C78.4927 37.2346 78.5302 37.1846 78.5771 37.1846C78.6361 37.1846 78.6616 37.1251 78.6616 36.9875C78.6616 36.85 78.6361 36.7905 78.5771 36.7905C78.5307 36.7905 78.4927 36.7537 78.4927 36.7086C78.4927 36.6597 78.4136 36.6119 78.2957 36.5898C78.1828 36.5686 78.0987 36.5194 78.0987 36.4747C78.0987 36.4317 78.048 36.3965 77.9861 36.3965C77.9242 36.3965 77.8735 36.3605 77.8735 36.3165C77.8735 36.2726 77.7983 36.2201 77.7064 36.1999C77.5715 36.1702 77.5324 36.1261 77.5031 35.9703C77.4826 35.8605 77.4332 35.7773 77.3888 35.7773C77.3282 35.7773 77.3106 35.6696 77.3106 35.2989C77.3106 34.9111 77.3266 34.8204 77.3951 34.8204C77.4535 34.8204 77.4795 34.7617 77.4795 34.63C77.4795 34.4868 77.5075 34.4322 77.5921 34.4101C77.654 34.3939 77.7046 34.3403 77.7046 34.291C77.7046 34.2416 77.7398 34.2012 77.7828 34.2012C77.8276 34.2012 77.8768 34.1171 77.8979 34.0042C77.9201 33.8863 77.9678 33.8072 78.0168 33.8072C78.0618 33.8072 78.0987 33.7565 78.0987 33.6946C78.0987 33.6321 78.1362 33.5821 78.1831 33.5821C78.2295 33.5821 78.2675 33.5441 78.2675 33.4976C78.2675 33.4507 78.3176 33.4132 78.3801 33.4132C78.4551 33.4132 78.4927 33.3756 78.4927 33.3006C78.4927 33.2381 78.5302 33.188 78.5771 33.188C78.6236 33.188 78.6616 33.15 78.6616 33.1036C78.6616 33.0567 78.7116 33.0192 78.7741 33.0192C78.8492 33.0192 78.8867 32.9816 78.8867 32.9066C78.8867 32.8447 78.9218 32.794 78.9646 32.794C79.0074 32.794 79.0557 32.7433 79.0719 32.6814C79.0881 32.6195 79.1417 32.5688 79.191 32.5688C79.2404 32.5688 79.2807 32.5309 79.2807 32.4844C79.2807 32.438 79.3158 32.4 79.3586 32.4C79.4014 32.4 79.4497 32.3493 79.4659 32.2874C79.4821 32.2255 79.5357 32.1748 79.585 32.1748C79.6344 32.1748 79.6748 32.1368 79.6748 32.0904C79.6748 32.044 79.7098 32.006 79.7526 32.006C79.7954 32.006 79.8437 31.9553 79.86 31.8934C79.8761 31.8315 79.9277 31.7808 79.9746 31.7808C80.0235 31.7808 80.0756 31.7089 80.0969 31.6119C80.1173 31.5191 80.17 31.4431 80.214 31.4431C80.258 31.4431 80.2939 31.3924 80.2939 31.3305C80.2939 31.268 80.3315 31.2179 80.3784 31.2179C80.4489 31.2179 80.4628 31.1022 80.4628 30.5143C80.4628 29.9264 80.4489 29.8107 80.3784 29.8107C80.324 29.8107 80.2937 29.7556 80.2931 29.6559C80.292 29.4149 80.232 29.2478 80.1466 29.2478C80.0952 29.2478 80.0688 29.181 80.0688 29.0508C80.0688 28.9206 80.0424 28.8538 79.9909 28.8538C79.9481 28.8538 79.8998 28.8031 79.8836 28.7412C79.8674 28.6793 79.8138 28.6286 79.7645 28.6286C79.7151 28.6286 79.6748 28.5906 79.6748 28.5442C79.6748 28.4977 79.6368 28.4597 79.5903 28.4597C79.5434 28.4597 79.5059 28.4097 79.5059 28.3472C79.5059 28.2721 79.4683 28.2346 79.3933 28.2346C79.3314 28.2346 79.2807 28.1994 79.2807 28.1564C79.2807 28.1117 79.1966 28.0625 79.0837 28.0413C78.9658 28.0192 78.8867 27.9714 78.8867 27.9225C78.8867 27.8774 78.8361 27.8406 78.7741 27.8406C78.7122 27.8406 78.6616 27.8055 78.6616 27.7627C78.6616 27.6774 78.4945 27.6174 78.2535 27.6162C78.1359 27.6156 78.0987 27.6425 78.0987 27.728Z" fill="white"/>
<path d="M75.6916 5.38688L74.5693 2.28882e-05L76.8139 2.15477H77.9361L79.0584 2.28882e-05L80.1807 2.15477H81.3029L83.5474 2.28882e-05L82.4252 5.38688" fill="white"/>
</svg>
