<svg width="22" height="23" viewBox="0 0 22 23" fill="none" xmlns="http://www.w3.org/2000/svg">
<path d="M13.0726 0.286465L12.4126 0.193833C10.4291 -0.0925631 8.40498 0.190771 6.5763 1.0108C4.74763 1.83084 3.18973 3.15378 2.08421 4.82541C0.90797 6.42328 0.206783 8.3208 0.0613444 10.2996C-0.0840942 12.2784 0.332126 14.258 1.26211 16.0107C1.35728 16.1863 1.41654 16.3792 1.43642 16.578C1.4563 16.7768 1.4364 16.9775 1.37789 17.1686C0.903158 18.8012 0.463158 20.4454 0 22.1707L0.578947 21.997C2.14211 21.5802 3.70526 21.1633 5.26842 20.7812C5.59835 20.7126 5.94129 20.7449 6.25263 20.8738C7.65507 21.5583 9.18769 21.9348 10.7476 21.9782C12.3076 22.0216 13.8588 21.7308 15.2971 21.1254C16.7354 20.5199 18.0276 19.6138 19.0869 18.4679C20.1462 17.3219 20.9481 15.9626 21.4388 14.4813C21.9296 12.9999 22.0978 11.4307 21.9321 9.87894C21.7665 8.3272 21.2708 6.82885 20.4785 5.48444C19.6861 4.14002 18.6153 2.98065 17.338 2.08413C16.0607 1.1876 14.6063 0.57467 13.0726 0.286465ZM15.9905 15.478C15.5697 15.8548 15.0565 16.1133 14.5033 16.2272C13.95 16.3411 13.3765 16.3064 12.8411 16.1265C10.4152 15.4423 8.3105 13.9202 6.90105 11.8307C6.36283 11.0915 5.93025 10.2809 5.61579 9.42225C5.44541 8.9241 5.41468 8.3888 5.52695 7.87442C5.63921 7.36004 5.89018 6.88622 6.25263 6.50436C6.42908 6.27917 6.66926 6.11233 6.94187 6.02559C7.21449 5.93885 7.50692 5.93622 7.78105 6.01804C8.01263 6.07594 8.17474 6.41173 8.38316 6.66647C8.55298 7.14506 8.74982 7.61208 8.97368 8.06752C9.14323 8.29968 9.21404 8.5895 9.17065 8.87369C9.12726 9.15788 8.9732 9.41336 8.74211 9.58436C8.22105 10.0475 8.3021 10.4296 8.67263 10.9507C9.49133 12.1312 10.6217 13.0612 11.9379 13.637C12.3084 13.7991 12.5863 13.8338 12.8295 13.4517C12.9337 13.3012 13.0726 13.1738 13.1884 13.0349C13.86 12.1896 13.6516 12.2012 14.7168 12.6644C15.0565 12.8072 15.3846 12.9731 15.7011 13.1623C16.0137 13.3475 16.4884 13.5444 16.5579 13.8223C16.6247 14.1237 16.6071 14.4378 16.507 14.7299C16.4069 15.0221 16.2282 15.2809 15.9905 15.478Z" fill="white"/>
</svg>
